# xmcd
#
# Track frame offsets: 
#        150
#        12047
#        22216
#        37786
#        50237
#        61733
#        72872
#        88722
#        100527
#        113736
#        128659
#        140416
#        152062
#        162444
#
# Disc length: 2369 seconds
#
# Revision: 0
# Processed by: cddbd v1.5.2PL0 Copyright (c) Steve Scherf et al.
# Submitted via: ExactAudioCopy v1.3
#
DISCID=af093f0e
DTITLE=Various Artist - Small Town Country, Vol. 1
DYEAR=2015
DGENRE=Country/Folk
TTITLE0=Ron McFarlin - Death of Bobby Darin
TTITLE1=Buddy Jack and Kathy Williams - Angel with a Broken Heart
TTITLE2=Earl Pettijohn - Sinner's Fate
TTITLE3=Harold Crosby - The Old Man and the Burro
TTITLE4=Donald Adkins - Lonely Side Walks
TTITLE5=Chuck Matthews - What Are You Going To Do
TTITLE6=Mitchell Catalanatto - Daddy's Dream
TTITLE7=Daniel Leal - I Wish
TTITLE8=Andy Johnston - Good Times
TTITLE9=Lee Royal - I See Love There in Your Eyes
TTITLE10=Harmonica Kid - Peppenadi
TTITLE11=Carroll Martin - The Sweetest Girl I've Ever Known
TTITLE12=Kenny Brent and Donna Harris - Shadows of You
TTITLE13=Lefty Batchelor - Second Rate
EXTD=
EXTT0=
EXTT1=
EXTT2=
EXTT3=
EXTT4=
EXTT5=
EXTT6=
EXTT7=
EXTT8=
EXTT9=
EXTT10=
EXTT11=
EXTT12=
EXTT13=
PLAYORDER=
